<?xml version="1.0" encoding="utf-8"?>
<!-- Svg Vector Icons : http://www.onlinewebfonts.com/icon -->
<!DOCTYPE svg PUBLIC "-//W3C//DTD SVG 1.1//EN" "http://www.w3.org/Graphics/SVG/1.1/DTD/svg11.dtd">
<svg version="1.1" xmlns="http://www.w3.org/2000/svg" xmlns:xlink="http://www.w3.org/1999/xlink" x="0px" y="0px" viewBox="0 0 1000 1000" enable-background="new 0 0 1000 1000" xml:space="preserve">
<metadata> Svg Vector Icons : http://www.onlinewebfonts.com/icon </metadata>
<g><path d="M511.4,546L214.2,307.2c1.6-0.3,3.1-0.9,4.7-0.9h585c1.7,0,3.1,0.6,4.8,0.9L511.4,546L511.4,546z M829.2,697.1l-211-203.5l210.7-169.3c0.8,2.5,1.6,5,1.6,7.6v359C830.5,693.1,829.7,695.1,829.2,697.1L829.2,697.1z M193.6,697.1c-0.5-2.1-1.3-4-1.3-6.3v-359c0-2.7,0.8-5.2,1.6-7.7l210.8,169.3L193.6,697.1L193.6,697.1z M803.9,716.5h-585c-2.3,0-4.3-0.8-6.4-1.3l212.8-205.1l77.7,62.4c2.5,2,5.5,3,8.5,3c3,0,6-1,8.5-3l77.7-62.4l212.8,205.1C808.3,715.8,806.2,716.5,803.9,716.5L803.9,716.5z"/><path d="M500,948.3c247.2,0,448.3-201.1,448.3-448.3c0-247.2-201.1-448.3-448.3-448.3C252.8,51.7,51.7,252.8,51.7,500C51.7,747.2,252.8,948.3,500,948.3 M500,990C229.4,990,10,770.6,10,500C10,229.4,229.4,10,500,10c270.7,0,490,219.4,490,490C990,770.6,770.6,990,500,990L500,990L500,990z"/></g>
</svg>