<svg xmlns="http://www.w3.org/2000/svg" xmlns:xlink="http://www.w3.org/1999/xlink" width="800" zoomAndPan="magnify"
  viewBox="0 0 600 242.999999" height="324" preserveAspectRatio="xMidYMid meet" version="1.0">
  <defs>
    <clipPath id="4023e0348c">
      <path d="M 0.046875 1 L 91 1 L 91 134 L 0.046875 134 Z M 0.046875 1 " clip-rule="nonzero" />
    </clipPath>
  </defs>
  <path fill="#000000"
    d="M 275.644531 14.695312 L 275.644531 2.21875 L 307.230469 2.21875 L 307.230469 125.140625 C 307.390625 135.921875 305.03125 146.589844 300.339844 156.308594 C 295.847656 165.429688 288.695312 172.992188 279.820312 178.003906 C 269.6875 183.507812 258.265625 186.222656 246.726562 185.871094 C 231.097656 186.613281 215.667969 182.09375 202.925781 173.042969 C 191.835938 164.453125 184.605469 151.84375 182.808594 137.964844 L 213.886719 137.964844 C 215.488281 143.980469 219.222656 149.214844 224.398438 152.699219 C 230.394531 156.496094 237.421875 158.351562 244.515625 158.007812 C 248.636719 158.191406 252.753906 157.558594 256.628906 156.148438 C 260.503906 154.738281 264.0625 152.578125 267.097656 149.792969 C 270.191406 146.4375 272.554688 142.476562 274.035156 138.164062 C 275.515625 133.851562 276.082031 129.28125 275.695312 124.738281 L 275.695312 100.332031 C 272.628906 108.546875 267.007812 115.570312 259.652344 120.378906 C 251.582031 125.542969 242.132812 128.164062 232.546875 127.894531 C 222.546875 128.03125 212.710938 125.390625 204.132812 120.277344 C 195.507812 114.964844 188.632812 107.246094 184.367188 98.078125 C 179.65625 87.332031 177.226562 75.730469 177.226562 64.003906 C 177.226562 52.277344 179.65625 40.679688 184.367188 29.929688 C 188.632812 20.777344 195.507812 13.074219 204.132812 7.78125 C 212.703125 2.640625 222.546875 0.00390625 232.546875 0.164062 C 243.058594 0.664062 267.246094 0.664062 275.644531 14.695312 Z M 218.515625 37.996094 C 212.644531 45.585938 209.464844 54.898438 209.464844 64.480469 C 209.464844 74.0625 212.644531 83.371094 218.515625 90.960938 C 224.925781 97.140625 233.511719 100.570312 242.429688 100.523438 C 251.347656 100.476562 259.894531 96.957031 266.242188 90.714844 C 272.328125 83.285156 275.652344 73.992188 275.652344 64.40625 C 275.652344 54.816406 272.328125 45.523438 266.242188 38.097656 C 263.191406 34.890625 259.496094 32.363281 255.394531 30.679688 C 251.296875 28.996094 246.886719 28.191406 242.453125 28.324219 C 238 28.132812 233.558594 28.898438 229.429688 30.566406 C 225.296875 32.234375 221.574219 34.769531 218.515625 37.996094 Z M 218.515625 37.996094 "
    fill-opacity="1" fill-rule="nonzero" />
  <path fill="#000000"
    d="M 250.5 243.003906 C 242.945312 243.007812 235.398438 242.46875 227.917969 241.398438 C 175.011719 233.730469 133.671875 200.960938 122.558594 157.914062 C 119.945312 143.234375 118.980469 128.308594 119.691406 113.414062 C 119.691406 111.261719 119.691406 109.257812 119.691406 107.453125 L 119.691406 54.335938 L 151.375 54.335938 L 151.375 107.453125 C 151.375 109.355469 151.375 111.414062 151.375 113.667969 C 150.828125 125.824219 151.449219 138.007812 153.234375 150.046875 C 161.132812 180.765625 192.261719 204.367188 232.445312 210.179688 C 263.273438 214.636719 302.855469 208.125 322.164062 176.65625 L 327.195312 166.882812 C 343.035156 134.710938 377.789062 134.410156 396.394531 134.210938 L 407.964844 134.210938 C 411.320312 133.722656 414.578125 132.707031 417.621094 131.207031 C 423.273438 128.449219 428.035156 124.171875 431.378906 118.859375 C 434.71875 113.546875 436.503906 107.410156 436.53125 101.140625 L 436.53125 54.535156 L 468.214844 54.535156 L 468.214844 101.140625 C 468.195312 116.964844 462.398438 132.242188 451.902344 144.117188 C 441.410156 155.996094 426.933594 163.660156 411.183594 165.679688 L 396.699219 165.679688 C 371.550781 165.933594 361.042969 169.691406 355.609375 180.714844 L 349.828125 192.238281 C 330.261719 224.359375 293.449219 243.003906 250.5 243.003906 Z M 250.5 243.003906 "
    fill-opacity="1" fill-rule="nonzero" />
  <path fill="#000000"
    d="M 364.761719 17.851562 L 364.761719 1.617188 L 332.929688 1.617188 L 332.929688 120.128906 C 332.921875 120.589844 333.035156 121.046875 333.257812 121.457031 C 333.480469 121.863281 333.804688 122.203125 334.199219 122.449219 C 334.59375 122.699219 335.042969 122.839844 335.507812 122.863281 C 335.972656 122.886719 336.433594 122.789062 336.851562 122.582031 C 345.054688 118.761719 353.679688 115.921875 362.550781 114.113281 C 363.167969 113.988281 363.722656 113.65625 364.125 113.175781 C 364.527344 112.691406 364.753906 112.085938 364.761719 111.460938 L 364.761719 66.359375 C 364.761719 44.746094 376.5 33.9375 399.96875 33.9375 L 409.222656 33.9375 L 409.222656 0.015625 C 399.464844 -0.1875 373.96875 1.617188 364.761719 17.851562 Z M 364.761719 17.851562 "
    fill-opacity="1" fill-rule="nonzero" />
  <path fill="#000000"
    d="M 136.136719 40.757812 L 132.867188 33.59375 C 130.996094 29.546875 127.703125 26.320312 123.613281 24.523438 L 116.371094 21.464844 L 123.515625 18.207031 C 127.597656 16.351562 130.84375 13.046875 132.617188 8.9375 L 135.734375 1.71875 L 139.003906 8.839844 C 140.847656 12.921875 144.171875 16.15625 148.308594 17.90625 L 155.5 21.011719 L 148.359375 24.269531 C 144.273438 26.125 141.027344 29.429688 139.253906 33.539062 Z M 136.136719 40.757812 "
    fill-opacity="1" fill-rule="nonzero" />
  <g clip-path="url(#4023e0348c)">
    <path fill="#000000"
      d="M 59.492188 60.851562 L 59.492188 28.078125 L 58.988281 28.078125 L 90.574219 28.078125 L 90.574219 1.320312 L 0.046875 1.320312 L 0.046875 28.078125 L 27.15625 28.078125 L 27.15625 58.996094 C 27.15625 59.398438 27.15625 59.695312 27.15625 60.046875 L 27.15625 60.699219 C 27.15625 94.070312 41.335938 133.007812 90.574219 133.007812 L 90.574219 107.101562 C 65.425781 107.25 59.492188 87.910156 59.492188 60.851562 Z M 59.492188 60.851562 "
      fill-opacity="1" fill-rule="nonzero" />
  </g>
  <path fill="#000000"
    d="M 452.371094 40.757812 L 449.101562 33.59375 C 447.226562 29.53125 443.914062 26.304688 439.796875 24.523438 L 432.554688 21.464844 L 439.746094 18.207031 C 443.820312 16.335938 447.0625 13.035156 448.851562 8.9375 L 451.96875 1.71875 L 455.1875 8.839844 C 457.03125 12.921875 460.355469 16.15625 464.492188 17.90625 L 471.734375 21.011719 L 464.59375 24.269531 C 460.507812 26.125 457.261719 29.429688 455.488281 33.539062 Z M 452.371094 40.757812 "
    fill-opacity="1" fill-rule="nonzero" />
  <path fill="#000000"
    d="M 590.222656 72.625 C 585.550781 67.714844 579.699219 64.074219 573.222656 62.050781 C 564.988281 59.59375 556.585938 57.753906 548.078125 56.539062 C 540.308594 55.425781 532.675781 53.53125 525.292969 50.878906 C 523.152344 50.210938 521.285156 48.878906 519.964844 47.074219 C 518.640625 45.269531 517.9375 43.089844 517.953125 40.855469 C 518.003906 38.648438 518.671875 36.5 519.878906 34.652344 C 521.085938 32.800781 522.789062 31.324219 524.792969 30.382812 C 531.058594 27.40625 537.976562 26.042969 544.910156 26.425781 C 557.863281 26.238281 570.621094 29.5625 581.824219 36.046875 L 593.390625 13.246094 C 586.621094 9.425781 579.289062 6.699219 571.664062 5.175781 C 562.96875 3.191406 554.078125 2.183594 545.160156 2.171875 C 530.558594 1.410156 516.078125 5.230469 503.769531 13.09375 C 498.996094 16.3125 495.113281 20.675781 492.476562 25.78125 C 489.84375 30.886719 488.535156 36.570312 488.679688 42.308594 C 488.066406 50.148438 490.515625 57.925781 495.523438 64.007812 C 500.230469 69.121094 506.21875 72.890625 512.871094 74.933594 C 521.367188 77.4375 530.042969 79.277344 538.824219 80.441406 C 546.324219 81.417969 553.714844 83.097656 560.902344 85.453125 C 562.921875 86.039062 564.6875 87.28125 565.925781 88.976562 C 567.164062 90.671875 567.804688 92.726562 567.742188 94.824219 C 567.742188 104.3125 558.738281 109.039062 540.734375 109.007812 C 524.378906 109.375 508.109375 106.53125 492.855469 100.636719 L 492.855469 125.691406 C 507.542969 131.167969 523.148438 133.773438 538.824219 133.359375 C 556.828125 133.359375 571.0625 129.769531 581.519531 122.585938 C 586.390625 119.507812 590.382812 115.242188 593.121094 110.1875 C 595.859375 105.132812 597.25 99.464844 597.160156 93.722656 C 597.6875 86.058594 595.199219 78.492188 590.222656 72.625 Z M 590.222656 72.625 "
    fill-opacity="1" fill-rule="nonzero" />
</svg>